<svg width="200" height="160" viewBox="0 0 200 160" fill="none" xmlns="http://www.w3.org/2000/svg">
          <defs>
            <linearGradient id="cancelledBg" x1="0%" y1="0%" x2="100%" y2="100%">
              <stop offset="0%" style="stop-color:#EF4444;stop-opacity:0.1"/>
              <stop offset="100%" style="stop-color:#DC2626;stop-opacity:0.05"/>
            </linearGradient>
            <linearGradient id="cancelledIcon" x1="0%" y1="0%" x2="100%" y2="100%">
              <stop offset="0%" style="stop-color:#EF4444"/>
              <stop offset="100%" style="stop-color:#DC2626"/>
            </linearGradient>
            <filter id="shadowCancelled" x="-20%" y="-20%" width="140%" height="140%">
              <feGaussianBlur in="SourceAlpha" stdDeviation="8"/>
              <feOffset dx="0" dy="4"/>
              <feComponentTransfer><feFuncA type="linear" slope="0.08"/></feComponentTransfer>
              <feMerge><feMergeNode/><feMergeNode in="SourceGraphic"/></feMerge>
            </filter>
          </defs>
          <circle cx="100" cy="80" r="70" fill="url(#cancelledBg)"/>
          <g filter="url(#shadowCancelled)">
            <rect x="20" y="40" width="160" height="80" rx="12" fill="white" stroke="#E5E7EB" stroke-width="1"/>
          </g>
          <rect x="32" y="52" width="48" height="48" rx="10" fill="url(#cancelledIcon)" opacity="0.1"/>
          <rect x="32" y="52" width="48" height="48" rx="10" fill="none" stroke="url(#cancelledIcon)" stroke-width="1.5"/>
          <!-- X mark -->
          <path d="M46 66 L66 86 M66 66 L46 86" stroke="url(#cancelledIcon)" stroke-width="3.5" stroke-linecap="round"/>
          <rect x="92" y="56" width="76" height="6" rx="3" fill="#EF4444"/>
          <rect x="92" y="70" width="64" height="6" rx="3" fill="#EF4444" opacity="0.4"/>
          <rect x="92" y="84" width="72" height="6" rx="3" fill="#E5E7EB"/>
          <rect x="140" y="48" width="32" height="16" rx="8" fill="#FEE2E2" stroke="#EF4444" stroke-width="1"/>
          <circle cx="148" cy="56" r="2" fill="#EF4444"/>
        </svg>